<mxfile host="app.diagrams.net" modified="2021-10-24T23:13:26.480Z" agent="5.0 (Windows NT 10.0; Win64; x64) AppleWebKit/537.36 (KHTML, like Gecko) Chrome/95.0.4638.54 Safari/537.36" etag="8jeMocuouQs_1MAofPeq" version="15.5.9" type="github">
  <diagram id="lkzsFeXddczjqLEksRVj" name="Page-1">
    <mxGraphModel dx="2062" dy="1098" grid="1" gridSize="10" guides="1" tooltips="1" connect="1" arrows="1" fold="1" page="1" pageScale="1" pageWidth="827" pageHeight="1169" math="0" shadow="0">
      <root>
        <mxCell id="0" />
        <mxCell id="1" parent="0" />
        <mxCell id="SvVRCxfJkjW9wRynF4Lh-11" value="" style="whiteSpace=wrap;html=1;aspect=fixed;fontSize=18;strokeColor=#4D4D4D;fillColor=#E1D5E7;" vertex="1" parent="1">
          <mxGeometry x="240" y="220" width="490" height="490" as="geometry" />
        </mxCell>
        <mxCell id="SvVRCxfJkjW9wRynF4Lh-1" value="&lt;p&gt;&lt;font style=&quot;font-size: 18px&quot;&gt;Vue&lt;/font&gt;&lt;/p&gt;" style="rounded=0;whiteSpace=wrap;html=1;strokeColor=#666666;fillColor=#f5f5f5;gradientColor=#b3b3b3;" vertex="1" parent="1">
          <mxGeometry x="300" y="250" width="120" height="60" as="geometry" />
        </mxCell>
        <mxCell id="SvVRCxfJkjW9wRynF4Lh-4" value="&lt;font style=&quot;font-size: 18px&quot;&gt;Interface&lt;/font&gt;" style="rounded=0;whiteSpace=wrap;html=1;fillColor=#dae8fc;gradientColor=#7ea6e0;strokeColor=#6c8ebf;" vertex="1" parent="1">
          <mxGeometry x="300" y="330" width="380" height="60" as="geometry" />
        </mxCell>
        <mxCell id="SvVRCxfJkjW9wRynF4Lh-5" value="&lt;font style=&quot;font-size: 18px&quot;&gt;Css&lt;/font&gt;" style="rounded=0;whiteSpace=wrap;html=1;strokeColor=#666666;fillColor=#f5f5f5;gradientColor=#b3b3b3;" vertex="1" parent="1">
          <mxGeometry x="430" y="250" width="120" height="60" as="geometry" />
        </mxCell>
        <mxCell id="SvVRCxfJkjW9wRynF4Lh-6" value="&lt;font style=&quot;font-size: 18px&quot;&gt;JavaScript&lt;/font&gt;" style="rounded=0;whiteSpace=wrap;html=1;strokeColor=#666666;fillColor=#f5f5f5;gradientColor=#b3b3b3;" vertex="1" parent="1">
          <mxGeometry x="560" y="250" width="120" height="60" as="geometry" />
        </mxCell>
        <mxCell id="SvVRCxfJkjW9wRynF4Lh-7" value="&lt;span style=&quot;font-size: 18px&quot;&gt;Bussiness Lyer(Spring boot)&lt;/span&gt;" style="rounded=0;whiteSpace=wrap;html=1;fillColor=#d5e8d4;gradientColor=#97d077;strokeColor=#82b366;" vertex="1" parent="1">
          <mxGeometry x="300" y="400" width="380" height="60" as="geometry" />
        </mxCell>
        <mxCell id="SvVRCxfJkjW9wRynF4Lh-8" value="&lt;span style=&quot;font-size: 18px&quot;&gt;Outer API(Google map,Data Api of covid)&lt;/span&gt;" style="rounded=0;whiteSpace=wrap;html=1;fillColor=#ffcd28;gradientColor=#ffa500;strokeColor=#d79b00;" vertex="1" parent="1">
          <mxGeometry x="300" y="470" width="380" height="60" as="geometry" />
        </mxCell>
        <mxCell id="SvVRCxfJkjW9wRynF4Lh-9" value="&lt;span style=&quot;font-size: 18px&quot;&gt;Database(MySQL + Mybatis)&lt;/span&gt;" style="rounded=0;whiteSpace=wrap;html=1;fillColor=#fff2cc;gradientColor=#ffd966;strokeColor=#d6b656;" vertex="1" parent="1">
          <mxGeometry x="300" y="540" width="380" height="60" as="geometry" />
        </mxCell>
        <mxCell id="SvVRCxfJkjW9wRynF4Lh-10" value="&lt;span style=&quot;font-size: 18px&quot;&gt;Windows/Unix System&lt;/span&gt;" style="rounded=0;whiteSpace=wrap;html=1;fillColor=#f8cecc;gradientColor=#ea6b66;strokeColor=#b85450;" vertex="1" parent="1">
          <mxGeometry x="300" y="620" width="380" height="60" as="geometry" />
        </mxCell>
      </root>
    </mxGraphModel>
  </diagram>
</mxfile>
